<?xml version="1.0" standalone="no"?><!DOCTYPE svg PUBLIC "-//W3C//DTD SVG 1.1//EN" "http://www.w3.org/Graphics/SVG/1.1/DTD/svg11.dtd"><svg t="1547793512942" class="icon" style="" viewBox="0 0 1024 1024" version="1.1" xmlns="http://www.w3.org/2000/svg" p-id="2740" xmlns:xlink="http://www.w3.org/1999/xlink" width="200" height="200"><defs><style type="text/css"></style></defs><path d="M1015.221322 89.578352v475.899924c0 49.387531-40.190821 89.578352-89.578352 89.578352h-30.337202v-59.718901h30.337202a29.859451 29.859451 0 0 0 29.85945-29.859451V89.578352a29.859451 29.859451 0 0 0-29.85945-29.859451h-836.064618a29.859451 29.859451 0 0 0-29.859451 29.859451v475.899924a29.859451 29.859451 0 0 0 29.859451 29.859451H179.156704v172.707062l106.239925-93.698956 39.474194 44.789176L119.437803 900.381874v-245.325246h-29.859451c-49.387531 0-89.578352-40.190821-89.578352-89.578352V89.578352C0 40.190821 40.190821 0 89.578352 0h836.064618c49.387531 0 89.578352 40.190821 89.578352 89.578352z m-177.962326 480.139966v181.724617c0 49.387531-40.190821 89.578352-89.578352 89.578352h-29.859451v182.978713l-218.989211-182.978713H447.891759c-49.387531 0-89.578352-40.190821-89.578351-89.578352V569.718318c0-49.387531 40.190821-89.578352 89.578351-89.578352h299.788885c49.387531 0 89.578352 40.190821 89.578352 89.578352z m-59.718902 0a29.859451 29.859451 0 0 0-29.85945-29.859451H447.891759a29.859451 29.859451 0 0 0-29.85945 29.859451v181.724617a29.859451 29.859451 0 0 0 29.85945 29.85945h72.677903l137.53263 115.018604v-115.018604h89.578352a29.859451 29.859451 0 0 0 29.85945-29.85945V569.718318z" p-id="2741"></path></svg>