<?xml version="1.0" standalone="no"?><!DOCTYPE svg PUBLIC "-//W3C//DTD SVG 1.1//EN" "http://www.w3.org/Graphics/SVG/1.1/DTD/svg11.dtd"><svg t="1547793192060" class="icon" style="" viewBox="0 0 1024 1024" version="1.1" xmlns="http://www.w3.org/2000/svg" p-id="5267" xmlns:xlink="http://www.w3.org/1999/xlink" width="200" height="200"><defs><style type="text/css"></style></defs><path d="M897.556269 166.931621H687.89573c12.450151-17.33061 19.82064-38.446066 19.82064-61.354343 0.099601-58.167104-47.310573-105.577278-105.477677-105.577278-37.94806 0-71.214862 20.219045-89.740687 50.39821-18.625426-30.179165-51.792627-50.39821-89.840288-50.39821-58.167104 0-105.477677 47.310573-105.477677 105.477677 0 22.908277 7.370489 44.023733 19.82064 61.354343H127.439743c-36.254839 0-65.637195 29.481957-65.637195 65.637195v132.071199c0 36.155238 29.481957 65.637195 65.637195 65.637195h17.629414v593.822391h728.881626V430.27721H897.456668c36.155238 0 65.637195-29.481957 65.637194-65.637194V232.568816c0.099601-36.155238-29.382356-65.637195-65.537593-65.637195zM584.210874 386.153876V211.054956h313.345395c11.852544 0 21.513861 9.661317 21.51386 21.51386v132.0712c0 11.852544-9.661317 21.513861-21.51386 21.51386H584.210874zM189.292092 430.27721h247.110593v549.699057H189.292092V430.27721z m291.233927-219.222254h59.46192v768.921311h-59.46192v-768.921311z m-44.123334 0V386.153876H127.439743c-11.852544 0-21.513861-9.661317-21.51386-21.51386V232.568816c0-11.852544 9.661317-21.513861 21.51386-21.51386h308.962942z m147.808189 768.921311V430.27721h245.716176v549.699057H584.210874zM540.88435 105.577278c0-33.86441 27.589534-61.354343 61.354343-61.354342s61.354343 27.589534 61.354343 61.354342c0 33.86441-27.589534 61.354343-61.354343 61.354343S540.88435 139.441689 540.88435 105.577278z m-24.302695 61.354343h-8.2669c1.494018-1.992024 2.788834-4.083649 4.08365-6.175274 1.394417 2.091625 2.788834 4.183251 4.18325 6.175274z m-93.923937 0c-33.86441 0-61.354343-27.489933-61.354343-61.354343s27.589534-61.354343 61.354343-61.354342c33.86441 0 61.354343 27.589534 61.354343 61.354342 0.099601 33.86441-27.489933 61.354343-61.354343 61.354343z" fill="#050101" p-id="5268"></path></svg>