<?xml version="1.0" standalone="no"?><!DOCTYPE svg PUBLIC "-//W3C//DTD SVG 1.1//EN" "http://www.w3.org/Graphics/SVG/1.1/DTD/svg11.dtd"><svg t="1548989521538" class="icon" style="" viewBox="0 0 1024 1024" version="1.1" xmlns="http://www.w3.org/2000/svg" p-id="3340" xmlns:xlink="http://www.w3.org/1999/xlink" width="200" height="200"><defs><style type="text/css"></style></defs><path d="M505.6 521.6c-9.6-6.4-19.2-6.4-32-6.4 3.2-3.2 3.2-6.4 6.4-9.6 134.4-38.4 214.4-156.8 192-288-19.2-102.4-80-172.8-182.4-198.4-102.4-28.8-192 0-262.4 83.2-67.2 83.2-76.8 172.8-32 268.8 35.2 80 102.4 121.6 185.6 140.8v3.2C179.2 528 9.6 704 0 908.8c0 22.4 3.2 28.8 25.6 25.6h441.6c6.4 0 12.8 3.2 19.2-3.2-112-134.4-92.8-304 19.2-409.6z m-96-9.6z" fill="#666666" p-id="3341"></path><path d="M739.2 451.2c-156.8 0-284.8 124.8-284.8 281.6s128 284.8 281.6 288c160 0 288-124.8 288-284.8 0-156.8-128-284.8-284.8-284.8z m163.2 243.2c-70.4 73.6-144 144-214.4 217.6-54.4-54.4-102.4-105.6-153.6-153.6-6.4-6.4-9.6-12.8 0-19.2l3.2-3.2c19.2-16 35.2-51.2 57.6-51.2 16 0 35.2 28.8 51.2 48 12.8 12.8 25.6 35.2 41.6 35.2 12.8 0 28.8-22.4 41.6-35.2l147.2-147.2c9.6-9.6 16-12.8 25.6 0 16 19.2 48 35.2 48 54.4 0 19.2-32 38.4-48 54.4z" fill="#666666" p-id="3342"></path></svg>