<?xml version="1.0" standalone="no"?><!DOCTYPE svg PUBLIC "-//W3C//DTD SVG 1.1//EN" "http://www.w3.org/Graphics/SVG/1.1/DTD/svg11.dtd"><svg t="1547793195337" class="icon" style="" viewBox="0 0 1024 1024" version="1.1" xmlns="http://www.w3.org/2000/svg" p-id="5382" xmlns:xlink="http://www.w3.org/1999/xlink" width="200" height="200"><defs><style type="text/css"></style></defs><path d="M1024 910.9H0V49.8h1024v861.1zM29.9 878.4h964.2V82.2H29.9v796.2z" fill="#050101" p-id="5383"></path><path d="M1020.9 716.3H3.1v-472h1017.7v472zM33.1 683.9H991V276.8H33.1v407.1z" fill="#050101" p-id="5384"></path><path d="M111.4 75.4h29.9v174.7h-29.9zM273.5 75.4h29.9v174.7h-29.9zM462.1 75.4H492v174.7h-29.9zM650.8 75.4h29.9v174.7h-29.9zM839.5 75.4h29.9v174.7h-29.9zM111.4 709.5h29.9v174.7h-29.9zM273.5 709.5h29.9v174.7h-29.9zM462.1 709.5H492v174.7h-29.9zM650.8 709.5h29.9v174.7h-29.9zM839.5 709.5h29.9v174.7h-29.9zM471.9 599.2c-7.3 0-14.6-2.1-21.2-6.2-13.3-8.3-21.2-23.2-21.2-39.8V407.5c0-16.6 7.9-31.5 21.2-39.8 13.3-8.3 29.2-8.3 42.4 0l116.4 72.8c13.3 8.3 21.2 23.2 21.2 39.8 0 16.6-7.9 31.5-21.2 39.8L493.1 593c-6.6 4.1-13.9 6.2-21.2 6.2z m0-205.3c-2.9 0-5.2 1.1-6.3 1.9-1.9 1.2-6.3 4.7-6.3 11.7v145.6c0 7.1 4.4 10.6 6.3 11.7 1.9 1.2 6.9 3.5 12.5 0L594.5 492c5.6-3.5 6.3-9.4 6.3-11.8 0-2.3-0.6-8.2-6.3-11.7l-116.4-72.8c-2.2-1.3-4.3-1.8-6.2-1.8z" fill="#050101" p-id="5385"></path></svg>