<svg class="icon" viewBox="0 0 1024 1024" xmlns="http://www.w3.org/2000/svg" width="200" height="200"><defs><style/></defs><path d="M908.786 492.416c-11.05 0-20.009 8.958-20.009 20.009v338.328c0 38.615-31.416 70.031-70.03 70.031h-616.04c-38.614 0-70.03-31.416-70.03-70.03V174.45c0-38.614 31.416-70.03 70.03-70.03h362.38c11.049 0 20.008-8.959 20.008-20.01 0-11.05-8.96-20.008-20.009-20.008H202.708c-60.681 0-110.05 49.367-110.05 110.05v676.302c0 60.681 49.368 110.05 110.05 110.05h616.038c60.681 0 110.05-49.368 110.05-110.05V512.426c0-11.052-8.96-20.01-20.01-20.01z"/><path d="M942.577 117.985l-35.371-35.37c-23.405-23.405-61.486-23.401-84.891 0l-422.37 422.368a20.025 20.025 0 0 0-3.304 4.364l-127.322 227.07a20.01 20.01 0 0 0 27.947 26.82l219.286-135.104a19.989 19.989 0 0 0 3.654-2.886l422.37-422.368c23.404-23.407 23.404-61.489 0-84.894zm-524.02 434.096l55.421 55.279-132.026 81.343 76.605-136.622zm495.722-377.502L505.927 582.93l-63.75-63.586 408.435-408.432c7.799-7.8 20.494-7.805 28.295 0l35.372 35.372c7.803 7.8 7.803 20.493 0 28.295z"/></svg>