<?xml version="1.0" standalone="no"?><!DOCTYPE svg PUBLIC "-//W3C//DTD SVG 1.1//EN" "http://www.w3.org/Graphics/SVG/1.1/DTD/svg11.dtd"><svg t="1547793216316" class="icon" style="" viewBox="0 0 1024 1024" version="1.1" xmlns="http://www.w3.org/2000/svg" p-id="2265" xmlns:xlink="http://www.w3.org/1999/xlink" width="200" height="200"><defs><style type="text/css"></style></defs><path d="M387.072 765.26933333c-81.80622222 0-148.36622222-61.55377778-148.36622222-137.67111111 0-23.66577778 6.82666667-46.87644445 19.22844444-67.69777777 18.65955555-30.49244445 48.58311111-53.02044445 84.65066667-63.71555556 9.55733333-2.84444445 16.95288889-3.98222222 23.66577778-3.98222222 15.81511111 0 28.21688889 12.40177778 28.21688888 28.21688888s-12.40177778 28.21688889-28.21688888 28.2168889c-1.13777778 0-3.41333333 0-6.25777778 1.13777777-24.23466667 6.82666667-43.46311111 20.93511111-54.15822222 39.48088889-7.39555555 11.83288889-10.69511111 24.80355555-10.69511112 38.34311111 0 44.60088889 41.18755555 81.23733333 91.47733334 81.23733333 17.52177778 0 34.47466667-4.55111111 49.72088889-12.97066666 26.51022222-15.24622222 42.32533333-40.61866667 42.32533333-68.26666667V391.05422222c0-48.01422222 26.51022222-91.93244445 70.54222222-116.84977777 23.66577778-13.53955555 50.176-20.36622222 77.36888889-20.36622223 81.80622222 0 148.36622222 61.55377778 148.36622223 137.67111111 0 23.66577778-6.82666667 46.87644445-19.22844445 67.69777778-18.65955555 30.49244445-48.58311111 53.02044445-84.65066667 63.71555556-10.12622222 2.84444445-16.95288889 3.98222222-23.66577778 3.98222222-15.81511111 0-28.21688889-12.40177778-28.21688888-28.21688889s12.40177778-28.21688889 28.21688888-28.21688889c1.13777778 0 3.41333333 0 6.25777778-1.13777778 24.23466667-7.28177778 43.46311111-21.504 54.15822222-39.48088888 7.28177778-11.83288889 10.69511111-24.80355555 10.69511112-38.34311112 0-44.60088889-41.18755555-81.23733333-91.93244445-81.23733333-17.52177778 0-34.47466667 4.55111111-49.72088889 12.97066667-26.51022222 15.24622222-42.32533333 40.61866667-42.32533333 68.26666666v235.86133334c0 48.01422222-26.51022222 92.04622222-70.54222222 116.84977778-23.32444445 14.22222222-49.83466667 21.04888889-76.91377778 21.04888888z m573.89511111-253.952c0-249.40088889-202.06933333-451.47022222-451.47022222-451.47022222S58.02666667 261.80266667 58.02666667 511.31733333s202.06933333 451.47022222 451.47022222 451.47022222 451.47022222-202.06933333 451.47022222-451.47022222z m56.43377778 0c0 280.46222222-227.44177778 507.904-507.904 507.904-280.46222222 0-507.904-227.44177778-507.904-507.904C1.59288889 230.85511111 229.03466667 3.41333333 509.49688889 3.41333333c280.46222222 0 507.904 227.44177778 507.904 507.904z m0 0" fill="#333333" p-id="2266"></path></svg>