<?xml version="1.0" standalone="no"?><!DOCTYPE svg PUBLIC "-//W3C//DTD SVG 1.1//EN" "http://www.w3.org/Graphics/SVG/1.1/DTD/svg11.dtd"><svg t="1547174985040" class="icon" style="" viewBox="0 0 1024 1024" version="1.1" xmlns="http://www.w3.org/2000/svg" p-id="5345" xmlns:xlink="http://www.w3.org/1999/xlink" width="200" height="200"><defs><style type="text/css"></style></defs><path d="M993.28 722.432l-15.36-18.432-104.96-128.512h0.512V168.448c0-71.68-57.344-130.048-128.512-130.048H52.736C46.08 38.4 40.96 43.52 40.96 49.664v791.04c0 71.68 57.344 129.536 128.512 129.536h478.72c6.144 0 11.264 5.12 11.264 11.264 0 6.144 5.12 11.264 11.264 11.264h185.344c6.144 0 11.264-5.12 11.264-11.264v-229.376c0-6.144 5.12-11.264 11.264-11.264h104.96c10.24 0 15.872-10.752 9.728-18.432z m-105.472-27.136h-54.784c-6.144 0-11.264 5.12-11.264 11.264v229.376c0 6.144-5.12 11.264-11.776 11.264h-92.672c-6.144 0-11.264-5.12-11.264-11.264v-124.928c0-12.288-10.24-22.528-23.04-22.528s-23.04 10.24-23.04 22.528v102.4c0 6.144-5.12 11.264-11.264 11.264H169.472c-45.056 0-81.92-37.376-81.92-83.968V95.232c0-6.144 5.12-11.264 11.776-11.264h646.144c45.056 0 82.432 37.888 82.432 84.48v318.976c0 10.752-13.824 15.36-20.48 7.168l-12.8-15.872-8.704-10.752c-4.608-5.632-12.8-5.632-17.408-0.512l-9.216 10.24-203.264 226.304c-8.192 9.216-7.68 23.552 2.048 32.256 9.728 8.192 24.064 7.168 32.768-2.048l175.616-196.096c4.608-5.12 13.312-5.12 17.408 0.512l113.152 138.24c5.632 7.168 0.512 18.432-9.216 18.432z m-132.096-315.904c0-12.288-10.24-22.528-23.04-22.528H203.776c-12.8 0-23.04 10.24-23.04 22.528 0 12.288 10.24 22.528 23.04 22.528H732.16c13.312 0 23.552-10.24 23.552-22.528zM206.336 265.728h528.384c12.8 0 23.04-10.24 23.04-22.528 0-12.288-10.24-22.528-23.04-22.528H206.336c-12.8 0-23.04 10.24-23.04 22.528 0 12.288 10.24 22.528 23.04 22.528z" p-id="5346"></path></svg>