<?xml version="1.0" standalone="no"?><!DOCTYPE svg PUBLIC "-//W3C//DTD SVG 1.1//EN" "http://www.w3.org/Graphics/SVG/1.1/DTD/svg11.dtd"><svg t="1547173267981" class="icon" style="" viewBox="0 0 1024 1024" version="1.1" xmlns="http://www.w3.org/2000/svg" p-id="1057" xmlns:xlink="http://www.w3.org/1999/xlink" width="200" height="200"><defs><style type="text/css"></style></defs><path d="M1007.58186667 413.78702222L534.41422222 12.34488889a36.40888889 36.40888889 0 0 0-47.104 0L14.14257778 413.78702222a36.40888889 36.40888889 0 0 0 47.104 55.52355556l12.5952-10.68373333v527.53066666a36.40888889 36.40888889 0 0 0 72.81777777 0V397.43715555v-0.56888888L510.86222222 87.8592l364.27093333 309.05457778V622.45546667a36.40888889 36.40888889 0 0 0 72.81777778 0V458.68373333l12.51555556 10.62684445a36.40888889 36.40888889 0 1 0 47.104-55.52355556z" p-id="1058"></path><path d="M510.8736 913.05528889m13.65333333 0l81.92 0q13.65333333 0 13.65333334 13.65333333l0 81.92q0 13.65333333-13.65333334 13.65333333l-81.92 0q-13.65333333 0-13.65333333-13.65333333l0-81.92q0-13.65333333 13.65333333-13.65333333Z" p-id="1059"></path><path d="M674.72497778 913.05528889m13.65333333 0l81.92 0q13.65333333 0 13.65333334 13.65333333l0 81.92q0 13.65333333-13.65333334 13.65333333l-81.92 0q-13.65333333 0-13.65333333-13.65333333l0-81.92q0-13.65333333 13.65333333-13.65333333Z" p-id="1060"></path><path d="M511.71555555 768.43235555m13.65333334 0l81.92 0q13.65333333 0 13.65333333 13.65333334l0 81.92q0 13.65333333-13.65333333 13.65333333l-81.92 0q-13.65333333 0-13.65333334-13.65333333l0-81.92q0-13.65333333 13.65333334-13.65333334Z" p-id="1061"></path><path d="M511.71555555 623.38844445m13.65333334 0l81.92 0q13.65333333 0 13.65333333 13.65333333l0 81.92q0 13.65333333-13.65333333 13.65333333l-81.92 0q-13.65333333 0-13.65333334-13.65333333l0-81.92q0-13.65333333 13.65333334-13.65333333Z" p-id="1062"></path><path d="M674.72497778 767.60177778m13.65333333 0l81.92 0q13.65333333 0 13.65333334 13.65333333l0 81.92q0 13.65333333-13.65333334 13.65333334l-81.92 0q-13.65333333 0-13.65333333-13.65333334l0-81.92q0-13.65333333 13.65333333-13.65333333Z" p-id="1063"></path><path d="M838.56497778 913.05528889m13.65333333 0l81.92 0q13.65333333 0 13.65333334 13.65333333l0 81.92q0 13.65333333-13.65333334 13.65333333l-81.92 0q-13.65333333 0-13.65333333-13.65333333l0-81.92q0-13.65333333 13.65333333-13.65333333Z" p-id="1064"></path><path d="M437.91928889 794.16888889H288.19911111l24.20053334-24.14364444a28.44444445 28.44444445 0 0 0-40.17493334-40.27733334l-72.89742222 72.72675556-0.27306667 0.28444444-0.62577777 0.65991111-0.06826667 0.07964445-0.4096 0.46648888-0.43235556 0.50062223-0.1024 0.12515555-0.37546667 0.47786667-0.07964444 0.1024-0.28444444 0.37546667-0.13653334 0.17066666-0.35271111 0.50062222-0.07964444 0.11377778-0.23893333 0.34133334-0.14791112 0.21617778-0.32995555 0.52337777v0.07964445l-0.22755556 0.35271111-0.14791111 0.23893333-0.3072 0.54613334-0.22755556 0.4096-0.13653333 0.2503111-0.26168889 0.52337778-0.23893333 0.47786667-0.11377778 0.23893333-0.21617777 0.48924445-0.23893334 0.55751111-0.09102222 0.22755556-0.17066667 0.4551111-0.23893333 0.64853334-0.06826667 0.19342222-0.13653333 0.42097778c-0.07964445 0.23893333-0.15928889 0.47786667-0.23893334 0.72817778v0.17066666l-0.11377777 0.39822222c-0.06826667 0.26168889-0.14791111 0.512-0.2048 0.7736889v0.1479111c0 0.13653333-0.05688889 0.27306667-0.09102223 0.4096s-0.12515555 0.53475555-0.17066666 0.80782223v0.12515555c0 0.14791111 0 0.29582222-0.07964444 0.44373334s-0.09102222 0.52337778-0.13653334 0.78506666v0.11377778c0 0.18204445 0 0.35271111-0.06826666 0.53475556s-0.06826667 0.47786667-0.09102223 0.7168v5.58648888c0 0.23893333 0.05688889 0.48924445 0.09102223 0.72817778s0 0.36408889 0.06826666 0.53475556v0.1024c0 0.26168889 0.09102222 0.53475555 0.13653334 0.79644444s0 0.29582222 0.07964444 0.45511112v0.11377777c0 0.27306667 0.11377778 0.53475555 0.18204444 0.80782223s0.05688889 0.27306667 0.09102222 0.42097777v0.13653333l0.2048 0.7736889 0.11377778 0.4096v0.15928888c0.06826667 0.23893333 0.14791111 0.47786667 0.22755556 0.70542222l0.14791111 0.44373334 0.06826667 0.19342222 0.23893333 0.62577778 0.18204445 0.47786666 0.09102222 0.21617778 0.22755555 0.53475556 0.22755556 0.52337778 0.11377777 0.23893333 0.21617778 0.43235555 0.26168889 0.53475556 0.13653333 0.23893334 0.19342223 0.34133333 0.06826667 0.12515555 0.28444444 0.512 0.14791111 0.23893334 0.17066667 0.27306666 0.12515555 0.2048 0.3072 0.47786667 0.14791111 0.2048 0.15928889 0.23893333 0.18204445 0.26168889 0.31857778 0.45511111 0.12515555 0.17066667 0.18204445 0.22755555 0.22755555 0.29582223 0.34133333 0.44373333 0.1024 0.12515556 0.23893334 0.27306666 0.23893333 0.28444445 0.36408889 0.42097777 0.37546666 0.39822223 0.32995556 0.34133333 0.27306667 0.28444444 72.81777777 72.46506667a28.44444445 28.44444445 0 1 0 40.11804445-40.33422222l-23.97297778-23.89333333h149.57226667a28.44444445 28.44444445 0 0 0 0-56.88888889z" p-id="1065"></path></svg>