<?xml version="1.0" standalone="no"?><!DOCTYPE svg PUBLIC "-//W3C//DTD SVG 1.1//EN" "http://www.w3.org/Graphics/SVG/1.1/DTD/svg11.dtd"><svg t="1547174502266" class="icon" style="" viewBox="0 0 1024 1024" version="1.1" xmlns="http://www.w3.org/2000/svg" p-id="1304" xmlns:xlink="http://www.w3.org/1999/xlink" width="200" height="200"><defs><style type="text/css"></style></defs><path d="M1006.7695424 375.58018773l-468.35522773-328.75682773c-3.37319573-3.37319573-8.30325013-6.6166528-11.67644587-8.30325013-13.2333056-8.30325013-33.21300267-3.37319573-43.2028512 11.67644586L18.68272213 377.26678507c-14.91990293 9.98984853-16.60650133 31.52640427-4.93005546 48.1329056 11.67644587 16.60650133 33.21300267 21.53655573 46.44630826 11.67644586l31.52640427-23.22315413 0 539.71128747c0 19.97969707 16.60650133 36.5861984 36.5861984 36.5861984 19.97969707 0 36.5861984-16.60650133 36.5861984-36.5861984L164.897776 362.34688213l348.7365248-244.1674624 352.10972053 247.41091947L865.74402027 951.8776736c0 19.97969707 16.60650133 36.5861984 36.5861984 36.5861984 19.97969707 0 36.5861984-16.60650133 36.5861984-36.5861984L938.916416 418.78303787l24.90975147 16.60650133c14.91990293 9.98984853 34.8996 4.93005547 46.44630826-11.67644587C1021.68944533 407.106592 1020.1325856 385.57003627 1006.7695424 375.58018773L1006.7695424 375.58018773 1006.7695424 375.58018773 1006.7695424 375.58018773zM344.1960928 873.7752224l-59.80935147 0c-23.22315413 0-28.2829472 4.93005547-28.2829472 28.2829472l0 61.49594987c0 23.22315413 4.93005547 28.2829472 28.2829472 28.2829472l59.80935147 0c23.22315413 0 28.2829472-4.93005547 28.2829472-28.2829472l0-61.49594987C370.79244267 878.83501653 365.7326496 873.7752224 344.1960928 873.7752224L344.1960928 873.7752224 344.1960928 873.7752224 344.1960928 873.7752224zM344.1960928 672.8106112l-59.80935147 0c-23.22315413 0-28.2829472 4.93005547-28.2829472 28.2829472l0 59.80935147c0 23.22315413 4.93005547 28.2829472 28.2829472 28.2829472l59.80935147 0c23.22315413 0 28.2829472-4.93005547 28.2829472-28.2829472l0-61.49594987C370.79244267 677.87040427 365.7326496 672.8106112 344.1960928 672.8106112L344.1960928 672.8106112 344.1960928 672.8106112 344.1960928 672.8106112zM543.47410667 873.7752224l-59.80935147 0c-23.22315413 0-28.2829472 4.93005547-28.2829472 28.2829472l0 61.49594987c0 23.22315413 4.93005547 28.2829472 28.2829472 28.2829472l59.80935147 0c23.22315413 0 28.2829472-4.93005547 28.2829472-28.2829472l0-61.49594987C570.07045653 878.83501653 565.01066347 873.7752224 543.47410667 873.7752224L543.47410667 873.7752224 543.47410667 873.7752224 543.47410667 873.7752224zM742.7521216 873.7752224l-59.80935147 0c-23.22315413 0-28.2829472 4.93005547-28.2829472 28.2829472l0 61.49594987c0 23.22315413 4.93005547 28.2829472 28.2829472 28.2829472l59.80935147 0c23.22315413 0 28.2829472-4.93005547 28.2829472-28.2829472l0-61.49594987C769.3484704 878.83501653 764.28867733 873.7752224 742.7521216 873.7752224L742.7521216 873.7752224 742.7521216 873.7752224 742.7521216 873.7752224zM543.47410667 672.8106112l-59.80935147 0c-23.22315413 0-28.2829472 4.93005547-28.2829472 28.2829472l0 59.80935147c0 23.22315413 4.93005547 28.2829472 28.2829472 28.2829472l59.80935147 0c23.22315413 0 28.2829472-4.93005547 28.2829472-28.2829472l0-61.49594987C570.07045653 677.87040427 565.01066347 672.8106112 543.47410667 672.8106112L543.47410667 672.8106112 543.47410667 672.8106112 543.47410667 672.8106112zM344.1960928 471.9757376l-59.80935147 0c-23.22315413 0-28.2829472 4.93005547-28.2829472 28.2829472l0 61.49594987c0 23.22315413 4.93005547 28.2829472 28.2829472 28.2829472l59.80935147 0c23.22315413 0 28.2829472-4.93005547 28.2829472-28.2829472l0-61.49594987C370.79244267 475.21919467 365.7326496 471.9757376 344.1960928 471.9757376L344.1960928 471.9757376 344.1960928 471.9757376 344.1960928 471.9757376zM344.1960928 471.9757376" p-id="1305"></path></svg>