<?xml version="1.0" standalone="no"?><!DOCTYPE svg PUBLIC "-//W3C//DTD SVG 1.1//EN" "http://www.w3.org/Graphics/SVG/1.1/DTD/svg11.dtd"><svg t="1547175654018" class="icon" style="" viewBox="0 0 1092 1024" version="1.1" xmlns="http://www.w3.org/2000/svg" p-id="1526" xmlns:xlink="http://www.w3.org/1999/xlink" width="213.28125" height="200"><defs><style type="text/css"></style></defs><path d="M356.887376 393.438033H274.419377c-31.619504 0-38.153298 6.703064-38.153299 39.067352v85.650262c0 32.364289 6.533795 39.067353 38.153299 39.067353h82.467999c31.58565 0 38.153298-6.703064 38.153298-39.067353v-85.650262c0-32.364289-6.567649-39.067353-38.153298-39.067352z" p-id="1527"></path><path d="M890.458039 353.625895l76.238889 54.978666 25.695079 18.518061c14.929552 10.765527 36.832998 5.078079 48.918825-12.695197 12.119681-17.773276 9.817619-40.895461-5.111933-51.660988L551.140816 13.022225a41.437123 41.437123 0 0 0-12.559782-8.903565c-14.354036-8.429611-33.921566-3.114555-45.601147 12.593636L12.864466 363.951322c-14.895698 10.765527-17.163906 33.921566-5.111932 51.694842 12.085827 17.773276 33.95542 23.460724 48.851117 12.695197l33.447612-24.205509v572.874992c0 21.564908 17.062345 39.033499 38.119445 39.033499 21.0571 0 38.119445-17.502445 38.119445-39.033499v-627.989074l358.343091-259.151286 365.824795 263.755411z" p-id="1528"></path><path d="M356.887376 603.061124H274.419377c-31.619504 0-38.153298 6.703064-38.153299 39.067353v85.650262c0 32.364289 6.533795 39.067353 38.153299 39.067352h82.467999c31.58565 0 38.153298-6.703064 38.153298-39.067352v-85.650262c0-32.364289-6.567649-39.067353-38.153298-39.067353zM356.887376 812.921193H274.419377c-31.619504 0-38.153298 6.703064-38.153299 39.067352v85.650262c0 32.364289 6.533795 39.067353 38.153299 39.067353h82.467999c31.58565 0 38.153298-6.703064 38.153298-39.067353v-85.650262c0-32.364289-6.567649-39.067353-38.153298-39.067352zM563.429766 595.139321h383.361093v157.352734h55.62189v-210.469438H507.807877v420.837315h219.034464v-53.048997h-163.412575z" p-id="1529"></path><path d="M726.842341 672.833926h55.621889v159.282404H726.842341zM943.270058 837.769925c-92.082495 0-140.053412 89.137209-140.053412 89.137209a150.548109 150.548109 0 0 0 140.053412 89.069502c95.907981 0 140.053412-89.069502 140.053412-89.069502s-47.970917-89.137209-140.053412-89.137209z m40.421507 130.303501a56.400528 56.400528 0 0 1-40.421507 15.640482c-34.497082 0-57.585413-22.715939-57.585413-54.978666 0.135415-14.861844 6.330672-29.080464 17.130052-39.405891 10.833235-10.325427 25.390394-15.945167 40.455361-15.572775 34.497082 0 57.416144 22.715939 57.416144 54.809397-0.067708 14.895698-6.195256 29.148172-16.994637 39.507453z" p-id="1530"></path><path d="M943.473181 890.920482a36.629875 36.629875 0 0 0-34.327812 32.127312 35.208013 35.208013 0 0 0 34.497081 32.228873c17.908691-1.015616 32.46585-14.624867 34.497082-32.228873 1.557277-15.098821-15.606629-31.991896-34.666351-32.127312zM835.851765 699.375351h55.317205v106.1657H835.851765zM943.270058 890.852775l0.203123 0.067707 0.169269-0.067707zM617.325109 648.188317h55.45262v210.841831h-55.45262z" p-id="1531"></path></svg>