<svg class="icon" viewBox="0 0 1024 1024" xmlns="http://www.w3.org/2000/svg" width="200" height="200"><defs><style/></defs><path d="M248.482 938a20.771 20.771 0 0 1-20.475-24.282l48.43-282.364L71.289 431.383a20.773 20.773 0 0 1 11.513-35.43l283.508-41.195L493.1 97.854a20.771 20.771 0 0 1 37.254 0l126.789 256.904 283.51 41.195a20.773 20.773 0 1 1 11.511 35.43L747.013 631.354l48.43 282.364a20.771 20.771 0 0 1-30.139 21.897L511.727 802.299l-253.58 133.316a20.763 20.763 0 0 1-9.665 2.385zm-118.06-506.989l182.835 178.217a20.78 20.78 0 0 1 5.974 18.386L276.068 879.26l225.994-118.812a20.776 20.776 0 0 1 19.33 0L747.386 879.26l-43.163-251.645a20.78 20.78 0 0 1 5.974-18.386l182.833-178.217-252.665-36.714a20.776 20.776 0 0 1-15.642-11.363L511.727 153.98 398.729 382.934a20.775 20.775 0 0 1-15.639 11.363l-252.668 36.714z"/></svg>