<svg class="icon" viewBox="0 0 1024 1024" xmlns="http://www.w3.org/2000/svg" width="200" height="200"><defs><style/></defs><path d="M954.382 263.834l-82.627-98.12a20.657 20.657 0 0 0-15.802-7.352h-278.87v-71.28c0-11.409-9.25-20.657-20.658-20.657h-86.76c-11.409 0-20.658 9.248-20.658 20.657v184.885H171.158c-6.327 0-12.305 2.9-16.223 7.868L70.252 387.261a20.661 20.661 0 0 0 0 25.578l84.683 107.423a20.655 20.655 0 0 0 16.223 7.87h277.85v299.322h-135.28c-11.41 0-20.658 9.248-20.658 20.657v86.76c0 11.409 9.248 20.658 20.657 20.658h396.616c11.41 0 20.658-9.25 20.658-20.658v-86.76c0-11.409-9.249-20.657-20.658-20.657h-133.26V669.675H736.49c5.169 0 10.149-1.936 13.96-5.43l76.082-69.745a20.653 20.653 0 0 0-.002-30.454l-76.082-69.742a20.648 20.648 0 0 0-13.958-5.43H577.082v-92.958h278.87a20.66 20.66 0 0 0 15.802-7.351l82.627-98.121c6.475-7.686 6.475-18.921.001-26.61zM181.178 486.817l-68.4-86.768 68.4-86.769h267.83v173.536h-267.83zm508.509 427.398H334.385v-45.446h355.302v45.446zm-199.365-86.76V107.739h45.446v719.716h-45.446zm238.133-297.266l53.547 49.085-53.547 49.087H577.082V530.19h151.373zm117.887-175.585h-269.26V199.676h269.26l65.233 77.464-65.233 77.464z"/></svg>