<?xml version="1.0" standalone="no"?><!DOCTYPE svg PUBLIC "-//W3C//DTD SVG 1.1//EN" "http://www.w3.org/Graphics/SVG/1.1/DTD/svg11.dtd"><svg t="1547793167360" class="icon" style="" viewBox="0 0 1351 1024" version="1.1" xmlns="http://www.w3.org/2000/svg" p-id="4683" xmlns:xlink="http://www.w3.org/1999/xlink" width="263.8671875" height="200"><defs><style type="text/css"></style></defs><path d="M180.622222 1024h989.866667A180.622222 180.622222 0 0 0 1351.111111 843.377778V180.622222A180.622222 180.622222 0 0 0 1170.488889 0H180.622222A180.622222 180.622222 0 0 0 0 180.622222v662.755556a180.622222 180.622222 0 0 0 180.622222 180.622222zM71.111111 180.622222A109.511111 109.511111 0 0 1 180.622222 71.111111h989.866667A109.511111 109.511111 0 0 1 1280 180.622222v662.755556a109.511111 109.511111 0 0 1-109.511111 109.511111H180.622222A109.511111 109.511111 0 0 1 71.111111 843.377778z" p-id="4684"></path><path d="M254.222222 258.133333l843.022222-2.133333a35.555556 35.555556 0 1 0 0-71.111111l-843.377777 3.555555a35.555556 35.555556 0 1 0 0 71.111112zM254.222222 817.777778l190.577778-2.133334a35.555556 35.555556 0 1 0 0-71.111111L253.866667 746.666667a35.555556 35.555556 0 1 0 0 71.111111zM453.688889 358.044444a32.711111 32.711111 0 0 0-30.933333 22.755556l-37.688889 119.822222c-10.666667 32.355556-18.844444 61.866667-29.511111 94.577778h-2.488889c-11.377778-32.711111-18.133333-62.222222-29.155556-94.577778L284.444444 380.8a32.711111 32.711111 0 0 0-30.933333-22.4h-1.777778a32.711111 32.711111 0 0 0-30.577777 43.733333l76.088888 210.844445a58.666667 58.666667 0 0 0 110.577778 0l76.444445-210.844445a32.711111 32.711111 0 0 0-30.577778-44.088889z" p-id="4685"></path><path d="M647.111111 358.044444m32.711111 0l3.911111 0q32.711111 0 32.711111 32.711112l0 227.911111q0 32.711111-32.711111 32.711111l-3.911111 0q-32.711111 0-32.711111-32.711111l0-227.911111q0-32.711111 32.711111-32.711112Z" p-id="4686"></path><path d="M1006.222222 358.044444h-75.377778a31.288889 31.288889 0 0 0-30.222222 32.711112v228.266666a31.288889 31.288889 0 0 0 30.222222 32.711111h3.911112a31.288889 31.288889 0 0 0 30.222222-32.711111v-71.111111h43.022222c68.977778 0 124.088889-30.222222 124.088889-97.066667s-54.755556-92.8-125.866667-92.8z m-2.488889 142.222223h-38.755555v-95.644445h35.555555c44.444444 0 67.555556 11.377778 67.555556 45.511111s-20.266667 50.844444-64.711111 50.844445z" p-id="4687"></path></svg>