<?xml version="1.0" standalone="no"?><!DOCTYPE svg PUBLIC "-//W3C//DTD SVG 1.1//EN" "http://www.w3.org/Graphics/SVG/1.1/DTD/svg11.dtd"><svg t="1552871592121" class="icon" style="" viewBox="0 0 1024 1024" version="1.1" xmlns="http://www.w3.org/2000/svg" p-id="1734" xmlns:xlink="http://www.w3.org/1999/xlink" width="200" height="200"><defs><style type="text/css"></style></defs><path d="M970.752 223.744L567.296 16.384c-32.768-16.896-74.752-16.896-107.008 0L57.344 223.744C24.576 240.64 4.096 272.384 4.096 306.688v414.72c0 34.304 20.48 65.536 53.248 82.432l402.944 207.36c16.384 8.192 34.816 12.8 53.248 12.8 18.944 0 37.376-4.608 53.248-12.8l402.944-207.36c32.768-16.896 53.248-48.64 53.248-82.432v-414.72c1.024-34.304-19.456-66.048-52.224-82.944z m-14.336 497.152c0 12.8-7.68 24.064-19.968 30.72l-402.944 207.36c-11.776 6.144-27.648 6.144-39.424 0l-402.944-207.36c-12.288-6.144-19.968-17.92-19.968-30.72v-414.72c0-12.8 7.68-24.064 19.968-30.72l402.944-207.36c6.144-3.072 12.8-4.608 19.968-4.608s13.824 1.536 19.456 4.608L936.96 275.456c12.288 6.144 19.968 17.92 19.968 30.72v414.72z m-94.208-411.648L537.6 466.944c-3.072 1.536-6.144 3.072-9.216 5.12-9.216 3.072-19.968 3.072-29.184-0.512-2.56-1.536-5.12-3.072-8.192-4.608L176.64 309.248c-15.872-8.192-36.864-3.072-46.08 11.264-7.68 11.776-5.12 26.112 5.12 35.328 2.048 2.048 5.12 4.096 8.192 5.632l32.768 16.384L461.824 522.24c0.512 0.512 1.536 0.512 2.048 1.024 9.216 6.656 14.848 16.896 14.848 27.648l1.536 323.072v3.072c0 0.512 0 1.024 0.512 1.536v1.536c0 0.512 0.512 1.024 0.512 1.536 0 0.512 0 1.024 0.512 1.536 0 0.512 0.512 1.024 0.512 1.024 0 0.512 0.512 1.024 0.512 1.536 0 0.512 0.512 0.512 0.512 1.024 0.512 0.512 0.512 1.024 1.024 2.048v0.512c5.12 8.192 14.848 14.336 26.112 15.36h3.584c10.24 0 19.968-4.096 26.112-11.264 4.608-5.12 7.68-11.776 7.68-19.456v-20.48l1.024-302.08c0-10.24 5.12-19.456 13.312-26.112 1.024-0.512 2.56-1.024 3.584-1.536l328.704-160.768c16.384-8.192 22.528-26.112 13.312-40.96-8.704-15.36-29.184-20.992-45.568-12.8z" p-id="1735"></path></svg>