<?xml version="1.0" standalone="no"?><!DOCTYPE svg PUBLIC "-//W3C//DTD SVG 1.1//EN" "http://www.w3.org/Graphics/SVG/1.1/DTD/svg11.dtd"><svg t="1552873741578" class="icon" style="" viewBox="0 0 1024 1024" version="1.1" xmlns="http://www.w3.org/2000/svg" p-id="2177" xmlns:xlink="http://www.w3.org/1999/xlink" width="200" height="200"><defs><style type="text/css"></style></defs><path d="M826.026667 573.44c-27.306667-27.306667-51.2-30.72-61.44-20.48l-30.72 30.72 81.92 81.92 30.72-30.72c13.653333-13.653333 10.24-34.133333-20.48-61.44zM539.306667 778.24c-6.826667 6.826667-27.306667 88.746667-27.306667 88.746667 0 3.413333-3.413333 17.066667 0 20.48 3.413333 3.413333 10.24 3.413333 20.48 0 0 0 81.92-20.48 88.746667-27.306667l174.08-174.08-81.92-81.92-174.08 174.08z m-3.413334 85.333333l20.48-71.68 51.2 51.2-71.68 20.48zM648.533333 887.466667h273.066667v34.133333h-273.066667zM750.933333 785.066667h170.666667v34.133333h-170.666667zM324.266667 750.933333h-170.666667c-27.306667 0-51.2-23.893333-51.2-51.2v-375.466666c0-27.306667 23.893333-51.2 51.2-51.2h170.666667c27.306667 0 51.2 23.893333 51.2 51.2v375.466666c0 27.306667-23.893333 51.2-51.2 51.2zM870.4 443.733333h-170.666667c-27.306667 0-51.2-23.893333-51.2-51.2v-238.933333c0-27.306667 23.893333-51.2 51.2-51.2h170.666667c27.306667 0 51.2 23.893333 51.2 51.2v238.933333c0 27.306667-23.893333 51.2-51.2 51.2zM375.466667 477.866667h170.666666v68.266666h-170.666666z" fill="#646464" p-id="2178"></path><path d="M512 238.933333h170.666667v68.266667h-170.666667z" fill="#646464" p-id="2179"></path><path d="M512 238.933333h68.266667v409.6h-68.266667z" fill="#646464" p-id="2180"></path></svg>