<?xml version="1.0" standalone="no"?><!DOCTYPE svg PUBLIC "-//W3C//DTD SVG 1.1//EN" "http://www.w3.org/Graphics/SVG/1.1/DTD/svg11.dtd"><svg t="1547793014408" class="icon" style="" viewBox="0 0 1024 1024" version="1.1" xmlns="http://www.w3.org/2000/svg" p-id="4108" xmlns:xlink="http://www.w3.org/1999/xlink" width="200" height="200"><defs><style type="text/css"></style></defs><path d="M510.08 0c-281.728 0-510.08 228.352-510.08 510.048s228.352 510.08 510.08 510.08c281.696 0 510.048-228.32 510.048-510.08s-228.352-510.048-510.048-510.048zM820.288 629.216c46.624 147.68-40.8 32.064-40.8 32.064-2.912 49.568-47.616 88.416-47.616 88.416 125.344 71.904 11.648 98.144 11.648 98.144-131.168 44.704-219.232-34.976-219.232-34.976-73.824 75.136-221.504 41.44-221.504 41.44-80.32-10.368-75.136-51.808-75.136-51.808 36.256-45.344 75.136-46.624 75.136-46.624-67.36-55.712-63.456-111.424-63.456-111.424-6.496 32.384-41.472 47.936-41.472 47.936-47.936 7.776-56.992-41.472-56.992-41.472 14.24-91.968 117.888-169.696 117.888-169.696-0.48-2.368-0.736-4.64-1.056-6.912-77.408-29.376-17.024-27.52-0.512-26.56 1.088-9.824 3.456-18.336 6.464-25.568-10.72-4.768-37.024-5.472-30.336-8.384 7.392-3.2 35.296-9.312 39.616-10.24l1.088-4.064c0 0-0.128 1.6-0.352 3.904 0.032 0 0.16-0.032 0.16-0.032l-0.128 0.736c5.888-8.16 11.04-12.256 11.04-12.256 32.384-257.792 239.648-220.192 239.648-220.192l39.488-1.92c231.232 50.56 199.168 218.56 199.168 218.56 63.168 39.84-4.864 62.176-4.864 62.176 36.928 4.864 7.776 32.064 7.776 32.064 5.824 1.952 60.224 54.4 76.768 107.84s-22.368 38.816-22.368 38.816z" p-id="4109"></path></svg>