<?xml version="1.0" standalone="no"?><!DOCTYPE svg PUBLIC "-//W3C//DTD SVG 1.1//EN" "http://www.w3.org/Graphics/SVG/1.1/DTD/svg11.dtd"><svg t="1547174141477" class="icon" style="" viewBox="0 0 1024 1024" version="1.1" xmlns="http://www.w3.org/2000/svg" p-id="10993" xmlns:xlink="http://www.w3.org/1999/xlink" width="200" height="200"><defs><style type="text/css"></style></defs><path d="M256 73.142857h512c21.942857 0 36.571429-14.628571 36.571429-36.571428s-14.628571-36.571429-36.571429-36.571429h-512c-21.942857 0-36.571429 14.628571-36.571429 36.571429s14.628571 36.571429 36.571429 36.571428z m-73.142857 146.285714h658.285714c21.942857 0 36.571429-14.628571 36.571429-36.571428s-14.628571-36.571429-36.571429-36.571429h-658.285714c-21.942857 0-36.571429 14.628571-36.571429 36.571429s14.628571 36.571429 36.571429 36.571428z m731.428571 73.142858h-804.571428C51.2 292.571429 0 343.771429 0 402.285714v512c0 58.514286 51.2 109.714286 109.714286 109.714286h804.571428c58.514286 0 109.714286-51.2 109.714286-109.714286v-512c0-58.514286-51.2-109.714286-109.714286-109.714285z m36.571429 621.714285c0 21.942857-14.628571 36.571429-36.571429 36.571429h-804.571428c-21.942857 0-36.571429-14.628571-36.571429-36.571429v-512c0-21.942857 14.628571-36.571429 36.571429-36.571428h804.571428c21.942857 0 36.571429 14.628571 36.571429 36.571428v512z" p-id="10994"></path></svg>