<?xml version="1.0" standalone="no"?><!DOCTYPE svg PUBLIC "-//W3C//DTD SVG 1.1//EN" "http://www.w3.org/Graphics/SVG/1.1/DTD/svg11.dtd"><svg t="1547175707430" class="icon" style="" viewBox="0 0 1024 1024" version="1.1" xmlns="http://www.w3.org/2000/svg" p-id="1781" xmlns:xlink="http://www.w3.org/1999/xlink" width="200" height="200"><defs><style type="text/css"></style></defs><path d="M75.09333333 2.27555555h873.81333334a72.81777778 72.81777778 0 0 1 72.81777778 72.81777778v873.81333334a72.81777778 72.81777778 0 0 1-72.81777778 72.81777778H75.09333333a72.81777778 72.81777778 0 0 1-72.81777778-72.81777778V75.09333333a72.81777778 72.81777778 0 0 1 72.81777778-72.81777778z m36.40888889 72.81777778a36.40888889 36.40888889 0 0 0-36.40888889 36.40888889v800.99555556a36.40888889 36.40888889 0 0 0 36.40888889 36.40888889h800.99555556a36.40888889 36.40888889 0 0 0 36.40888889-36.40888889v-800.99555556a36.40888889 36.40888889 0 0 0-36.40888889-36.40888889h-800.99555556z" p-id="1782"></path><path d="M826.71843555 457.82357333l-610.50424888 0.58254222c-30.29219555 0-45.43829333 12.96156445-45.43829334 38.95751112 0 25.99594667 15.14609778 38.95751111 45.43829334 38.95751111h610.50424888c27.23384889-3.34961778 40.77795555-16.23836445 40.77795556-38.66624 0-22.42787555-13.54410667-35.68071111-40.77795556-39.83132445z" p-id="1783"></path><path d="M705.11274667 836.33038222V214.32092445c0-26.65130667-12.74311111-39.90414222-38.22933334-39.90414223-25.48622222 0-38.22933333 13.25283555-38.22933333 39.90414223l-0.58254222 622.00945777c0 23.22887111 12.81592889 34.80689778 38.52060444 34.80689778 25.63185778 0 38.52060445-11.65084445 38.52060445-34.80689778zM394.39928889 834.87402667v-627.68924445c-1.60199111-21.84533333-14.27228445-32.768-37.86524444-32.768-23.73859555 0-36.40888889 10.92266667-37.93806223 32.768l-0.58254222 627.68924445c1.31072 24.39395555 13.98101333 36.62734222 38.15651555 36.62734222s36.91861333-12.23338667 38.22933334-36.62734222z" p-id="1784"></path></svg>