<?xml version="1.0" standalone="no"?><!DOCTYPE svg PUBLIC "-//W3C//DTD SVG 1.1//EN" "http://www.w3.org/Graphics/SVG/1.1/DTD/svg11.dtd"><svg t="1547793519577" class="icon" style="" viewBox="0 0 1024 1024" version="1.1" xmlns="http://www.w3.org/2000/svg" p-id="2970" xmlns:xlink="http://www.w3.org/1999/xlink" width="200" height="200"><defs><style type="text/css"></style></defs><path d="M843.354353 670.117647a235.52 235.52 0 0 1-42.405647-137.216c0-46.742588 13.552941-89.268706 39.996235-127.397647 14.757647-21.504 38.128941-45.537882 70.174118-72.583529-20.901647-25.901176-42.526118-46.802824-64.030118-61.560471a224.677647 224.677647 0 0 0-131.072-39.996235c-30.177882 0-65.837176 7.408941-106.435765 20.901647-40.658824 14.155294-70.174118 20.961882-88.003764 20.961882-14.215529 0-42.526118-6.144-84.992-18.492235-43.068235-12.288-78.787765-18.432-108.905412-18.432-70.836706 0-128.662588 29.575529-174.742588 88.606117-46.140235 59.693176-69.511529 136.011294-69.51153 230.159059 0 100.894118 30.780235 203.655529 90.413177 309.549177C234.736941 970.450824 295.695059 1024 359.062588 1024c20.299294 0 47.405176-6.746353 81.257412-20.961882 33.310118-13.492706 62.765176-20.299294 87.401412-20.299294 25.238588 0 56.560941 6.144 92.882823 19.696941 36.984471 12.890353 65.234824 19.696941 86.196706 19.696941 52.284235 0 105.231059-40.056471 158.177883-120.651294 35.659294-53.549176 60.295529-105.231059 75.655529-153.840941-36.261647-11.023059-68.909176-36.864-97.28-77.522824z m-28.792471 198.354824c-39.574588 60.235294-77.884235 93.485176-107.821176 93.485176-8.854588 0-27.648-2.831059-65.114353-15.902118-41.743059-15.600941-80.112941-23.491765-113.965177-23.491764-32.587294 0-69.571765 8.312471-110.71247 24.997647-34.936471 14.637176-52.103529 16.203294-57.886118 16.203294-37.827765 0-85.052235-45.899294-132.758588-128.722824-55.597176-98.725647-82.642824-190.283294-82.642824-279.973647 0-80.474353 18.672941-143.781647 56.741648-193.114353 34.876235-44.634353 75.354353-65.415529 127.277176-65.415529 24.154353 0 54.332235 5.300706 92.099765 16.082823 63.307294 18.371765 86.979765 20.841412 101.737411 20.841412 25.6 0 60.837647-7.951059 107.038118-24.033882 35.478588-11.806118 64.873412-17.829647 87.341177-17.829647a164.261647 164.261647 0 0 1 109.266823 38.791529 318.162824 318.162824 0 0 0-33.852235 40.779294 278.407529 278.407529 0 0 0-50.778353 161.792c0 63.126588 17.889882 120.832 53.248 171.670589 21.323294 30.418824 45.056 54.693647 71.198118 72.643764a587.414588 587.414588 0 0 1-50.416942 91.196236zM567.657412 238.772706c-14.155294 4.336941-35.056941 8.011294-63.969883 10.480941 1.264941-60.897882 17.227294-113.844706 48.00753-158.117647C582.475294 46.742588 634.096941 16.624941 705.596235 0c1.204706 5.541647 2.409412 9.878588 3.011765 13.552941 0 4.276706 0.662588 7.951059 0.662588 12.288 0 25.238588-6.144 53.549176-17.829647 83.727059a251.482353 251.482353 0 0 1-57.283765 84.931765c-22.166588 22.106353-44.333176 36.864-66.499764 44.272941z" p-id="2971"></path></svg>