<?xml version="1.0" standalone="no"?><!DOCTYPE svg PUBLIC "-//W3C//DTD SVG 1.1//EN" "http://www.w3.org/Graphics/SVG/1.1/DTD/svg11.dtd"><svg t="1551844171959" class="icon" style="" viewBox="0 0 1024 1024" version="1.1" xmlns="http://www.w3.org/2000/svg" p-id="3627" xmlns:xlink="http://www.w3.org/1999/xlink" width="200" height="200"><defs><style type="text/css"></style></defs><path d="M514.56 936.448c-6.656 0-13.312-2.56-17.92-7.68L355.84 788.48H35.84c-14.336 0-25.6-11.264-25.6-25.6V112.64c0-14.336 11.264-25.6 25.6-25.6h957.44c14.336 0 25.6 11.264 25.6 25.6v650.24c0 14.336-11.264 25.6-25.6 25.6h-320L532.48 928.768c-4.608 5.12-11.264 7.68-17.92 7.68zM61.44 737.28h305.152c6.656 0 13.312 2.56 17.92 7.68l130.048 130.048 130.048-130.048c4.608-4.608 11.264-7.68 17.92-7.68H967.68V138.24H61.44v599.04z" p-id="3628"></path><path d="M384 430.08c-53.76 0-97.28-43.52-97.28-97.28s43.52-97.28 97.28-97.28 97.28 43.52 97.28 97.28-43.52 97.28-97.28 97.28z m0-143.36c-25.6 0-46.08 20.48-46.08 46.08s20.48 46.08 46.08 46.08 46.08-20.48 46.08-46.08-20.48-46.08-46.08-46.08zM640 645.12c-53.76 0-97.28-43.52-97.28-97.28s43.52-97.28 97.28-97.28 97.28 43.52 97.28 97.28-43.52 97.28-97.28 97.28z m0-143.36c-25.6 0-46.08 20.48-46.08 46.08s20.48 46.08 46.08 46.08 46.08-20.48 46.08-46.08-20.48-46.08-46.08-46.08z" p-id="3629"></path><path d="M711.68 358.4H465.92c-14.336 0-25.6-11.264-25.6-25.6s11.264-25.6 25.6-25.6h245.76c14.336 0 25.6 11.264 25.6 25.6s-11.264 25.6-25.6 25.6zM558.08 573.44H312.32c-14.336 0-25.6-11.264-25.6-25.6s11.264-25.6 25.6-25.6h245.76c14.336 0 25.6 11.264 25.6 25.6s-11.264 25.6-25.6 25.6z" p-id="3630"></path></svg>