<?xml version="1.0" standalone="no"?><!DOCTYPE svg PUBLIC "-//W3C//DTD SVG 1.1//EN" "http://www.w3.org/Graphics/SVG/1.1/DTD/svg11.dtd"><svg t="1547175695494" class="icon" style="" viewBox="0 0 1024 1024" version="1.1" xmlns="http://www.w3.org/2000/svg" p-id="1661" xmlns:xlink="http://www.w3.org/1999/xlink" width="200" height="200"><defs><style type="text/css"></style></defs><path d="M158.70144 355.968v606.912c0 29.248-59.52 29.248-59.52 0V393.856l-56.448 40.32c-24 17.152-58.56-32.64-34.688-49.728L471.91744 55.104C502.89344 32 522.09344 31.68 555.24544 56.448l459.84 328c23.808 16.96-6.592 66.752-30.656 49.728l-56.064-39.872v100.928c0 30.912-62.208 30.784-62.208 0V352.384L518.31744 105.024c-4.096-3.136-7.936-3.136-11.904-0.256L158.70144 355.968z" p-id="1662"></path><path d="M927.21344 985.984c-18.048 17.344-42.176 17.344-60.224 0V495.232c18.048-17.28 42.176-17.28 60.224 0v490.752z" p-id="1663"></path><path d="M800.10944 654.336h-576a54.4 54.4 0 0 1 0-64h576a54.4 54.4 0 0 1 0 64zM800.10944 774.4h-576a54.4 54.4 0 0 1 0-64h576a54.4 54.4 0 0 1 0 64zM800.10944 891.008h-576a54.4 54.4 0 0 1 0-64h576a54.4 54.4 0 0 1 0 64z" p-id="1664"></path></svg>