<?xml version="1.0" standalone="no"?><!DOCTYPE svg PUBLIC "-//W3C//DTD SVG 1.1//EN" "http://www.w3.org/Graphics/SVG/1.1/DTD/svg11.dtd"><svg t="1551844199174" class="icon" style="" viewBox="0 0 1024 1024" version="1.1" xmlns="http://www.w3.org/2000/svg" p-id="3744" xmlns:xlink="http://www.w3.org/1999/xlink" width="200" height="200"><defs><style type="text/css"></style></defs><path d="M776.68864 226.46784c-24.54528-141.58336-158.12096-236.032-298.28608-211.13344-139.9808 24.90368-258.26304 133.93408-233.53856 275.33824 5.33504 30.592 20.096 78.26432 37.5296 112.59392L28.04224 770.20672c-9.42592 13.5168-14.76608 37.888-11.91936 54.25152l11.02848 62.78656c-10.496-60.47232 2.84672 21.87776 11.02336 21.51936l83.77344 1.24416c16.18944-2.8416 36.46464-16.54272 45.35808-30.4128l100.67456-157.4144 0.88576-1.07008 87.86944 6.9376 117.57056-184.27392s26.16832-53.53984 123.07456-105.05728c88.69376-41.06752 163.04128-32.49152 163.04128-32.49152 21.57056-53.99552 27.20256-117.66784 16.26624-179.75808zM96.86528 795.38176l-22.00064 13.8496 5.12512-24.8832 238.70464-341.62688 16.50688 11.56096-238.336 341.09952zM652.71296 298.8544c-38.59456 55.49568-77.90592 16.36864-132.864-22.58944-54.9632-38.95296-104.94464-62.78144-66.34496-118.45632 38.59456-55.49056 114.36544-69.18656 169.32864-30.23872 54.95808 39.13216 68.47488 115.79392 29.88032 171.28448z" fill="" p-id="3745"></path><path d="M942.83264 690.22208a200.61696 200.61696 0 0 0-20.3776-49.40288l38.90688-58.55744-0.2048-0.1024-55.2704-55.26016-0.1024-0.1024-58.55744 38.90176a202.368 202.368 0 0 0-49.18784-20.3776l-13.99808-68.84864h-78.31552l-13.99808 68.74624a202.32192 202.32192 0 0 0-49.19808 20.3776l-58.55744-38.80448-55.46496 55.46496 38.89664 58.55744a197.07392 197.07392 0 0 0-20.47488 49.40288l-68.84864 13.99808v78.31552l68.84864 13.99808a203.93472 203.93472 0 0 0 20.37248 49.40288l-38.89664 58.55744 55.47008 55.46496 58.65984-38.89664a202.89024 202.89024 0 0 0 49.19808 20.37248l13.99808 68.84864h78.31552l13.99808-68.84864a200.7808 200.7808 0 0 0 49.18784-20.37248l58.55744 38.89664 0.1024-0.1024 55.2704-55.26016 0.1024-0.1024-38.90176-58.55744a200.61696 200.61696 0 0 0 20.3776-49.40288l68.84864-13.99808v-78.31552l-68.75648-13.99296z m-197.80096 145.73056c-51.21024-0.05632-92.67712-41.61536-92.6208-92.83072 0.06144-51.21024 41.61536-92.67712 92.8256-92.6208 51.21536 0.05632 92.68224 41.61536 92.62592 92.83072-0.05632 51.21024-41.61536 92.67712-92.83072 92.6208z m0 0" fill="" p-id="3746"></path></svg>