<?xml version="1.0" standalone="no"?><!DOCTYPE svg PUBLIC "-//W3C//DTD SVG 1.1//EN" "http://www.w3.org/Graphics/SVG/1.1/DTD/svg11.dtd"><svg t="1547174340870" class="icon" style="" viewBox="0 0 1024 1024" version="1.1" xmlns="http://www.w3.org/2000/svg" p-id="1810" xmlns:xlink="http://www.w3.org/1999/xlink" width="200" height="200"><defs><style type="text/css"></style></defs><path d="M1009.85742222 411.51146667L536.68977778 10.06933333a36.40888889 36.40888889 0 0 0-47.104 0L16.41813333 411.51146667a36.40888889 36.40888889 0 0 0 47.104 55.52355555l12.5952-10.68373333v527.53066666a36.40888889 36.40888889 0 0 0 72.81777778 0V395.1616v-0.56888889L513.13777778 85.58364445l364.27093333 309.05457777v225.55306667a36.40888889 36.40888889 0 0 0 72.81777778 0V456.40817778l12.51555556 10.62684444a36.40888889 36.40888889 0 1 0 47.104-55.52355555z" p-id="1811"></path><path d="M221.696 910.77973333m13.65333333 0l81.92 0q13.65333333 0 13.65333334 13.65333334l0 81.92q0 13.65333333-13.65333334 13.65333333l-81.92 0q-13.65333333 0-13.65333333-13.65333333l0-81.92q0-13.65333333 13.65333333-13.65333334Z" p-id="1812"></path><path d="M385.54737778 910.77973333m13.65333333 0l81.92 0q13.65333333 0 13.65333334 13.65333334l0 81.92q0 13.65333333-13.65333334 13.65333333l-81.92 0q-13.65333333 0-13.65333333-13.65333333l0-81.92q0-13.65333333 13.65333333-13.65333334Z" p-id="1813"></path><path d="M222.52657778 766.1568m13.65333333 0l81.92 0q13.65333333 0 13.65333334 13.65333333l0 81.92q0 13.65333333-13.65333334 13.65333334l-81.92 0q-13.65333333 0-13.65333333-13.65333334l0-81.92q0-13.65333333 13.65333333-13.65333333Z" p-id="1814"></path><path d="M222.52657778 621.11288889m13.65333333 0l81.92 0q13.65333333 0 13.65333334 13.65333333l0 81.92q0 13.65333333-13.65333334 13.65333333l-81.92 0q-13.65333333 0-13.65333333-13.65333333l0-81.92q0-13.65333333 13.65333333-13.65333333Z" p-id="1815"></path><path d="M385.54737778 765.32622222m13.65333333 0l81.92 0q13.65333333 0 13.65333334 13.65333333l0 81.92q0 13.65333333-13.65333334 13.65333334l-81.92 0q-13.65333333 0-13.65333333-13.65333334l0-81.92q0-13.65333333 13.65333333-13.65333333Z" p-id="1816"></path><path d="M549.38737778 910.77973333m13.65333333 0l81.92 0q13.65333333 0 13.65333334 13.65333334l0 81.92q0 13.65333333-13.65333334 13.65333333l-81.92 0q-13.65333333 0-13.65333333-13.65333333l0-81.92q0-13.65333333 13.65333333-13.65333334Z" p-id="1817"></path><path d="M949.06595555 819.31377778V818.59697778v-0.63715556V817.22026667c0-0.23893333-0.05688889-0.48924445-0.09102222-0.72817778s0-0.36408889-0.06826666-0.53475556V815.78666667c0-0.26168889-0.09102222-0.53475555-0.13653334-0.79644445s0-0.29582222-0.07964444-0.45511111v-0.11377778c0-0.27306667-0.11377778-0.53475555-0.18204444-0.80782222s-0.05688889-0.27306667-0.09102223-0.42097778v-0.13653333l-0.2048-0.77368889-0.11377777-0.4096v-0.15928889c-0.06826667-0.23893333-0.14791111-0.47786667-0.22755556-0.70542222l-0.14791111-0.44373333-0.06826667-0.19342222-0.23893333-0.62577778-0.18204445-0.47786667-0.09102222-0.21617778-0.23893333-0.53475555-0.22755556-0.52337778-0.11377777-0.23893334-0.21617778-0.44373333-0.26168889-0.53475555-0.13653333-0.23893334-0.19342223-0.34133333-0.06826667-0.12515555-0.28444444-0.512-0.14791111-0.23893334-0.17066667-0.27306666-0.12515555-0.2048-0.60302223-0.43235556-0.1479111-0.2048-0.1592889-0.23893334-0.18204444-0.26168888-0.31857778-0.45511112-0.12515555-0.17066666-0.18204445-0.22755556-0.22755555-0.29582222-0.34133333-0.44373333-0.1024-0.12515556-0.23893334-0.27306667-0.23893333-0.28444444-0.36408889-0.42097778-0.37546667-0.39822222-0.32995555-0.34133333-0.27306667-0.28444445-72.81777778-72.46506666a28.44444445 28.44444445 0 1 0-40.11804444 40.33422222l23.97297777 23.89333333H702.14542222a28.44444445 28.44444445 0 0 0 0 56.88888889H851.85422222L827.65368889 872.67555555a28.44444445 28.44444445 0 0 0 40.17493333 40.27733334l72.89742223-72.72675556 0.27306666-0.28444444 0.62577778-0.65991111 0.06826666-0.07964445 0.4096-0.46648888 0.43235556-0.50062223 0.1024-0.12515555 0.37546667-0.47786667 0.2048-0.22755555 0.28444444-0.37546667 0.13653333-0.17066667 0.35271112-0.50062222 0.07964444-0.11377778 0.23893334-0.34133333 0.1479111-0.21617778 0.32995556-0.52337778v-0.07964444l0.22755556-0.35271111 0.14791111-0.23893334 0.3072-0.54613333 0.22755555-0.4096 0.13653334-0.25031111 0.26168888-0.52337778 0.23893334-0.47786666 0.11377778-0.23893334 0.21617778-0.48924444 0.23893333-0.55751112 0.09102222-0.21617777 0.17066667-0.45511111 0.23893333-0.64853334 0.06826667-0.19342222 0.13653333-0.42097778c0.07964445-0.23893333 0.15928889-0.47786667 0.23893333-0.72817778v-0.17066666l0.11377778-0.39822222c0.06826667-0.26168889 0.14791111-0.512 0.2048-0.77368889v-0.14791111c0-0.13653333 0.05688889-0.27306667 0.09102222-0.4096s0.12515555-0.53475555 0.17066667-0.80782222v-0.12515556c0-0.14791111 0-0.29582222 0.07964445-0.44373334s0.09102222-0.52337778 0.13653333-0.78506666v-0.11377778c0-0.18204445 0-0.35271111 0.06826667-0.53475556s0.06826667-0.47786667 0.09102222-0.7168v-0.1024-0.69404444V821.44142222v-0.70542222-0.62577778c0.27306667-0.32995555 0.26168889-0.56888889 0.26168888-0.79644444z" p-id="1818"></path></svg>